<svg width="32" height="32" viewBox="0 0 32 32" fill="none" xmlns="http://www.w3.org/2000/svg">
<rect width="32" height="32" rx="6" fill="#F4F5F7"/>
<path d="M13.5001 6.71484H7.42864C7.03415 6.71484 6.71436 7.03464 6.71436 7.42913V13.5006C6.71436 13.895 7.03415 14.2148 7.42864 14.2148H13.5001C13.8946 14.2148 14.2144 13.895 14.2144 13.5006V7.42913C14.2144 7.03464 13.8946 6.71484 13.5001 6.71484Z" stroke="#22222A" stroke-linecap="round" stroke-linejoin="round"/>
<path d="M24.5714 6.71484H18.4999C18.1054 6.71484 17.7856 7.03464 17.7856 7.42913V13.5006C17.7856 13.895 18.1054 14.2148 18.4999 14.2148H24.5714C24.9658 14.2148 25.2856 13.895 25.2856 13.5006V7.42913C25.2856 7.03464 24.9658 6.71484 24.5714 6.71484Z" stroke="#22222A" stroke-linecap="round" stroke-linejoin="round"/>
<path d="M13.5001 17.7852H7.42864C7.03415 17.7852 6.71436 18.105 6.71436 18.4994V24.5709C6.71436 24.9654 7.03415 25.2852 7.42864 25.2852H13.5001C13.8946 25.2852 14.2144 24.9654 14.2144 24.5709V18.4994C14.2144 18.105 13.8946 17.7852 13.5001 17.7852Z" stroke="#22222A" stroke-linecap="round" stroke-linejoin="round"/>
<path d="M24.5714 17.7852H18.4999C18.1054 17.7852 17.7856 18.105 17.7856 18.4994V24.5709C17.7856 24.9654 18.1054 25.2852 18.4999 25.2852H24.5714C24.9658 25.2852 25.2856 24.9654 25.2856 24.5709V18.4994C25.2856 18.105 24.9658 17.7852 24.5714 17.7852Z" stroke="#22222A" stroke-linecap="round" stroke-linejoin="round"/>
</svg>
