<svg width="180" height="158" viewBox="0 0 180 158" fill="none" xmlns="http://www.w3.org/2000/svg">
<path d="M48.8414 21.7351C44.1189 23.7997 39.4328 26.299 36.1452 30.2291C32.8576 34.1591 31.1865 39.8278 33.1664 44.5729C35.8182 50.8936 44.1916 54.5882 44.2279 61.4342C44.2642 66.3422 39.7052 70.0912 35.128 71.8841C30.5327 73.6771 25.465 74.311 21.2874 76.919C14.9847 80.849 12.0422 88.4737 10.8253 95.7905C9.57201 103.379 10.0806 112.018 15.4751 117.524C22.1775 124.37 33.239 123.591 42.7203 122.142C55.3621 120.186 67.9676 117.904 80.5549 115.622C108.145 110.605 135.754 105.589 163.344 100.572C166.305 100.028 169.374 99.4489 171.79 97.6378C176.567 94.0519 176.967 86.6626 174.188 81.3924C171.409 76.1221 166.286 72.5361 161.183 69.4392C156.079 66.3422 150.702 63.4082 146.87 58.8262C143.055 54.2441 141.148 47.4706 144.036 42.2547C146.488 37.8356 151.738 35.4812 154.044 30.9716C157.059 25.0494 153.59 17.479 148.105 13.6938C142.619 9.92675 73.7617 10.8866 48.8414 21.7351Z" fill="#F7F7F7"/>
<path d="M171.814 125.502C174.082 126.732 175.629 129.131 175.629 131.889C175.629 135.9 172.373 139.147 168.35 139.147C165.247 139.147 162.604 137.214 161.554 134.486L171.814 125.502Z" fill="#CCEEFF"/>
<path d="M160.558 134.532C166.923 134.532 172.082 129.387 172.082 123.041C172.082 116.695 166.923 111.551 160.558 111.551C154.194 111.551 149.035 116.695 149.035 123.041C149.035 129.387 154.194 134.532 160.558 134.532Z" fill="#B0E1FF"/>
<path d="M160.559 145.745C160.413 145.745 160.298 145.63 160.298 145.485V123.039C160.298 122.894 160.413 122.779 160.559 122.779C160.704 122.779 160.819 122.894 160.819 123.039V145.485C160.827 145.63 160.704 145.745 160.559 145.745Z" fill="#CCEEFF"/>
<path d="M160.558 129.251C160.489 129.251 160.42 129.228 160.374 129.175L157.148 125.959C157.049 125.859 157.049 125.691 157.148 125.584C157.248 125.485 157.417 125.485 157.524 125.584L160.75 128.801C160.849 128.9 160.849 129.068 160.75 129.175C160.696 129.228 160.627 129.251 160.558 129.251Z" fill="#CCEEFF"/>
<path d="M160.558 132.24C160.489 132.24 160.42 132.217 160.374 132.163L157.148 128.947C157.049 128.848 157.049 128.679 157.148 128.573C157.248 128.473 157.417 128.473 157.524 128.573L160.75 131.789C160.849 131.888 160.849 132.056 160.75 132.163C160.696 132.217 160.627 132.24 160.558 132.24Z" fill="#CCEEFF"/>
<path d="M168.305 145.736C168.174 145.713 168.09 145.591 168.09 145.461V133.703C168.09 133.558 168.197 133.436 168.343 133.428C168.496 133.42 168.619 133.543 168.619 133.688V145.476C168.611 145.644 168.473 145.767 168.305 145.736Z" fill="#CCEEFF"/>
<path d="M168.35 135.416C168.281 135.416 168.212 135.393 168.167 135.34C168.067 135.24 168.067 135.072 168.167 134.965L170.496 132.643C170.595 132.544 170.764 132.544 170.871 132.643C170.971 132.742 170.971 132.91 170.871 133.017L168.542 135.34C168.488 135.386 168.419 135.416 168.35 135.416Z" fill="#CCEEFF"/>
<path d="M168.35 137.572C168.281 137.572 168.212 137.549 168.167 137.496C168.067 137.397 168.067 137.229 168.167 137.122L170.496 134.799C170.595 134.7 170.764 134.7 170.871 134.799C170.971 134.898 170.971 135.066 170.871 135.173L168.534 137.496C168.488 137.542 168.419 137.572 168.35 137.572Z" fill="#CCEEFF"/>
<path d="M15.6824 136.453C20.9232 136.453 25.1718 132.217 25.1718 126.991C25.1718 121.766 20.9232 117.529 15.6824 117.529C10.4415 117.529 6.19287 121.766 6.19287 126.991C6.19287 132.217 10.4415 136.453 15.6824 136.453Z" fill="#B0E1FF"/>
<path d="M15.6825 145.687C15.5625 145.687 15.4678 145.592 15.4678 145.473V126.989C15.4678 126.87 15.5625 126.775 15.6825 126.775C15.8025 126.775 15.8973 126.87 15.8973 126.989V145.473C15.9036 145.592 15.8025 145.687 15.6825 145.687Z" fill="#CCEEFF"/>
<path d="M15.6822 132.105C15.6254 132.105 15.5687 132.086 15.5308 132.042L12.8745 129.393C12.7925 129.311 12.7925 129.173 12.8745 129.085C12.9565 129.003 13.0953 129.003 13.1837 129.085L15.84 131.733C15.922 131.815 15.922 131.954 15.84 132.042C15.7958 132.086 15.739 132.105 15.6822 132.105Z" fill="#CCEEFF"/>
<path d="M15.6822 134.564C15.6254 134.564 15.5687 134.545 15.5308 134.501L12.8745 131.852C12.7925 131.77 12.7925 131.632 12.8745 131.544C12.9565 131.462 13.0953 131.462 13.1837 131.544L15.84 134.192C15.922 134.274 15.922 134.413 15.84 134.501C15.7958 134.545 15.739 134.564 15.6822 134.564Z" fill="#CCEEFF"/>
<path d="M177.929 158H2.07064C0.926337 158 0 157.077 0 155.936V145.649C0 144.508 0.926337 143.584 2.07064 143.584H177.929C179.074 143.584 180 144.508 180 145.649V155.936C180 157.077 179.074 158 177.929 158Z" fill="#F2F2F2"/>
<path d="M151.483 30.2452C159.859 30.2452 166.65 23.4746 166.65 15.1226C166.65 6.77062 159.859 0 151.483 0C143.107 0 136.317 6.77062 136.317 15.1226C136.317 23.4746 143.107 30.2452 151.483 30.2452Z" fill="#FF8F94"/>
<path opacity="0.2" d="M91.5572 154.019C116.084 154.019 135.967 152.316 135.967 150.215C135.967 148.115 116.084 146.412 91.5572 146.412C67.0304 146.412 47.1475 148.115 47.1475 150.215C47.1475 152.316 67.0304 154.019 91.5572 154.019Z" fill="#AAAAAA"/>
<path d="M62.5185 20.283C62.1552 19.8483 61.7738 19.4318 61.356 19.0696C60.9383 18.6893 60.4842 18.3814 60.0119 18.1097L59.6487 17.9105L59.2672 17.7475C59.1401 17.6932 59.0129 17.6569 58.8858 17.6026L58.686 17.5302C58.6133 17.512 58.5588 17.4939 58.4862 17.4758C58.359 17.4396 58.2319 17.4034 58.0866 17.3853L57.687 17.3128L57.2874 17.2766C57.1603 17.2585 57.015 17.2585 56.8878 17.2585C56.7607 17.2404 56.6154 17.2585 56.4882 17.2585H56.2884C56.2158 17.2585 56.1613 17.2766 56.0886 17.2766C55.8162 17.2947 55.5437 17.3309 55.2713 17.3672C54.7264 17.4396 54.1996 17.5664 53.6729 17.7294C53.1461 17.8924 52.6376 18.0735 52.129 18.3089C51.8747 18.4176 51.6386 18.5444 51.3843 18.6711C51.1481 18.7979 50.8939 18.9428 50.6759 19.0696L50.2763 19.3231L50.0765 18.8885C50.0402 18.7979 49.9675 18.6711 49.913 18.5625C49.8585 18.4538 49.7859 18.3451 49.7132 18.2365C49.5679 18.0191 49.4226 17.8199 49.2592 17.6207C48.9322 17.2223 48.5508 16.8782 48.133 16.5703C47.7153 16.2805 47.2612 16.0451 46.7889 15.8821C46.2985 15.7191 45.7899 15.6466 45.2813 15.6285C45.0271 15.6104 44.7546 15.6466 44.5003 15.6647C44.246 15.701 43.9736 15.7372 43.7193 15.7915C43.1926 15.9002 42.7021 16.0813 42.1936 16.2624C41.1946 16.6608 40.2501 17.2042 39.3237 17.7837C40.1411 17.0593 41.0493 16.4073 42.0301 15.8821C42.5387 15.6466 43.0472 15.4112 43.5921 15.2482C43.8646 15.1576 44.1371 15.1033 44.4277 15.049C44.7183 15.0127 44.9907 14.9765 45.2813 14.9584C45.8626 14.9403 46.4438 14.9946 47.0069 15.1576C47.5699 15.3206 48.1149 15.5742 48.5871 15.9002C49.0775 16.2262 49.5134 16.6246 49.8767 17.0593C50.0765 17.2766 50.24 17.512 50.4034 17.7475C50.4761 17.8743 50.5669 17.9829 50.6396 18.1097C50.7122 18.2365 50.7849 18.3633 50.8575 18.5081L50.2581 18.327C50.5306 18.164 50.7667 18.0373 51.0392 17.8924C51.2935 17.7656 51.5659 17.6388 51.8384 17.5302C52.3651 17.2947 52.9282 17.0955 53.4912 16.9506C54.0543 16.8057 54.6355 16.6789 55.2168 16.6065C55.5074 16.5703 55.798 16.5522 56.0886 16.5522C56.1613 16.5522 56.2339 16.5522 56.3066 16.5522H56.5245C56.6698 16.5522 56.8152 16.5703 56.9605 16.5884C58.1411 16.6789 59.2854 17.0774 60.2481 17.7294C60.7203 18.0554 61.1744 18.4357 61.5377 18.8704C61.7375 19.0696 61.9009 19.305 62.0826 19.5405C62.1734 19.6491 62.246 19.7759 62.3187 19.9027L62.5185 20.283Z" fill="#CCEEFF"/>
<path d="M158.168 51.9393C157.768 51.7038 157.368 51.4684 156.932 51.2873C156.515 51.1062 156.079 50.9794 155.625 50.8888L155.298 50.8345L154.953 50.7983C154.844 50.7802 154.735 50.7983 154.608 50.7983H154.444C154.39 50.7983 154.335 50.7983 154.281 50.8164C154.172 50.8345 154.063 50.8345 153.954 50.8526L153.627 50.907L153.3 50.9794C153.191 50.9975 153.082 51.0337 152.973 51.07C152.864 51.1062 152.755 51.1424 152.646 51.1786L152.482 51.2329C152.428 51.2511 152.373 51.2692 152.319 51.3054C152.101 51.3778 151.901 51.4865 151.701 51.5771C151.302 51.7763 150.92 52.0117 150.557 52.2834C150.194 52.5369 149.831 52.8267 149.504 53.1346C149.34 53.2795 149.177 53.4425 149.013 53.6055C148.85 53.7685 148.704 53.9315 148.577 54.0945L148.323 54.4024L148.05 54.1126C147.996 54.0582 147.905 53.9677 147.833 53.8953C147.76 53.8228 147.669 53.7504 147.596 53.696C147.433 53.5693 147.251 53.4425 147.07 53.3338C146.706 53.0984 146.325 52.9354 145.925 52.8086C145.526 52.6818 145.108 52.6275 144.69 52.6275C144.272 52.6275 143.855 52.6999 143.437 52.8267C143.237 52.881 143.037 52.9716 142.838 53.0621C142.638 53.1708 142.456 53.2433 142.256 53.37C141.875 53.5874 141.53 53.859 141.185 54.1307C140.513 54.7102 139.913 55.3803 139.332 56.0686C139.786 55.2898 140.313 54.5472 140.949 53.8771C141.276 53.5511 141.621 53.2433 142.002 52.9716C142.184 52.8267 142.402 52.718 142.601 52.5913C142.819 52.4826 143.019 52.3739 143.255 52.3015C143.709 52.1385 144.182 52.0298 144.654 52.0117C145.144 51.9936 145.617 52.0479 146.089 52.1747C146.561 52.3015 146.997 52.5007 147.415 52.7362C147.615 52.8629 147.814 52.9897 148.014 53.1346C148.105 53.207 148.196 53.2795 148.287 53.37C148.377 53.4425 148.468 53.533 148.559 53.6236L148.032 53.6417C148.196 53.4425 148.359 53.2795 148.523 53.0984C148.686 52.9354 148.868 52.7543 149.049 52.6094C149.413 52.2834 149.776 51.9936 150.176 51.7219C150.575 51.4503 150.993 51.2148 151.429 51.0156C151.647 50.9251 151.865 50.8164 152.101 50.744C152.155 50.7258 152.21 50.7077 152.264 50.6896L152.446 50.6353C152.555 50.5991 152.682 50.5628 152.791 50.5447C153.736 50.3093 154.735 50.3274 155.661 50.581C156.115 50.7258 156.569 50.8888 156.969 51.1424C157.187 51.2511 157.368 51.3959 157.568 51.5227C157.659 51.5952 157.75 51.6676 157.841 51.7401L158.168 51.9393Z" fill="#CCEEFF"/>
<g clip-path="url(#clip0_372_552)">
<path d="M89.6002 118.39C79.7592 118.39 71.7813 110.636 71.7813 101.072H51.4167V130.76H127.784V101.072H107.419C107.419 110.636 99.4412 118.39 89.6002 118.39Z" fill="#EBF1FF"/>
<path d="M128.974 100.632L118.792 74.656C118.7 74.4216 118.537 74.22 118.324 74.0777C118.112 73.9354 117.86 73.8593 117.602 73.8594H61.5991C61.341 73.8593 61.089 73.9354 60.8765 74.0777C60.664 74.22 60.5009 74.4216 60.409 74.656L50.2268 100.632C50.1803 100.759 50.1553 100.893 50.1528 101.028C50.1528 101.044 50.144 101.056 50.144 101.073V130.76C50.144 131.088 50.2781 131.403 50.5168 131.635C50.7555 131.867 51.0793 131.997 51.4168 131.997H127.784C128.121 131.997 128.445 131.867 128.684 131.635C128.922 131.403 129.057 131.088 129.057 130.76V101.073C129.057 101.056 129.048 101.044 129.048 101.028C129.045 100.893 129.02 100.759 128.974 100.632ZM62.476 76.3333H116.725L125.937 99.8357H107.419C107.082 99.8357 106.758 99.9661 106.519 100.198C106.281 100.43 106.146 100.745 106.146 101.073C106.146 109.954 98.7384 117.153 89.6003 117.153C80.4622 117.153 73.0541 109.954 73.0541 101.073C73.0541 100.745 72.92 100.43 72.6813 100.198C72.4427 99.9661 72.1189 99.8357 71.7814 99.8357H53.264L62.476 76.3333ZM126.511 129.523H52.6896V102.31H70.5509C71.217 112.058 79.5474 119.634 89.6003 119.634C99.6532 119.634 107.984 112.058 108.65 102.31H126.511V129.523Z" fill="#7B7F95"/>
<path d="M59.0535 124.575H57.7807V120.864C57.7807 120.536 57.6466 120.221 57.4079 119.989C57.1692 119.757 56.8455 119.627 56.5079 119.627C56.1703 119.627 55.8466 119.757 55.6079 119.989C55.3692 120.221 55.2351 120.536 55.2351 120.864V125.812C55.2351 126.14 55.3692 126.454 55.6079 126.686C55.8466 126.918 56.1703 127.049 56.5079 127.049H59.0535C59.391 127.049 59.7148 126.918 59.9534 126.686C60.1921 126.454 60.3262 126.14 60.3262 125.812C60.3262 125.484 60.1921 125.169 59.9534 124.937C59.7148 124.705 59.391 124.575 59.0535 124.575ZM66.6902 124.575H64.1446C63.807 124.575 63.4833 124.705 63.2446 124.937C63.0059 125.169 62.8718 125.484 62.8718 125.812C62.8718 126.14 63.0059 126.454 63.2446 126.686C63.4833 126.918 63.807 127.049 64.1446 127.049H66.6902C67.0277 127.049 67.3515 126.918 67.5901 126.686C67.8288 126.454 67.9629 126.14 67.9629 125.812C67.9629 125.484 67.8288 125.169 67.5901 124.937C67.3515 124.705 67.0277 124.575 66.6902 124.575Z" fill="#7B7F95"/>
</g>
<path d="M87.103 43.3207C87.103 42.2382 87.4252 41.1801 88.0289 40.28C88.6326 39.38 89.4906 38.6785 90.4945 38.2643C91.4984 37.85 92.603 37.7416 93.6687 37.9528C94.7345 38.164 95.7134 38.6853 96.4817 39.4507C97.2501 40.2161 97.7733 41.1913 97.9853 42.2529C98.1973 43.3146 98.0885 44.415 97.6726 45.4151C97.2568 46.4152 96.5527 47.2699 95.6492 47.8713C94.7457 48.4727 93.6835 48.7937 92.5969 48.7937V52.4423" stroke="#3F67AD" stroke-width="4" stroke-linecap="round" stroke-linejoin="round"/>
<path d="M92.5926 59.6086C92.1591 59.6086 91.8076 59.2586 91.8076 58.8268C91.8076 58.395 92.1591 58.0449 92.5926 58.0449" stroke="#3F67AD" stroke-width="4" stroke-linecap="round" stroke-linejoin="round"/>
<path d="M92.5918 59.6086C93.0253 59.6086 93.3768 59.2586 93.3768 58.8268C93.3768 58.395 93.0253 58.0449 92.5918 58.0449" stroke="#3F67AD" stroke-width="4" stroke-linecap="round" stroke-linejoin="round"/>
<defs>
<clipPath id="clip0_372_552">
<rect width="78.9125" height="76.6921" fill="white" transform="translate(50.144 73.7051)"/>
</clipPath>
</defs>
</svg>
