<svg width="25" height="24" viewBox="0 0 25 24" fill="none" xmlns="http://www.w3.org/2000/svg">
<circle cx="12.5" cy="12" r="12" fill="white"/>
<g clip-path="url(#clip0_89_50)">
<path d="M17.75 5H7.25C6.28487 5 5.5 5.78487 5.5 6.75V17.25C5.5 18.2151 6.28487 19 7.25 19H12.5V14.1875H10.75V12H12.5V10.25C12.5 8.80013 13.6751 7.625 15.125 7.625H16.875V9.8125H16C15.517 9.8125 15.125 9.767 15.125 10.25V12H17.3125L16.4375 14.1875H15.125V19H17.75C18.7151 19 19.5 18.2151 19.5 17.25V6.75C19.5 5.78487 18.7151 5 17.75 5Z" fill="#3284F4"/>
</g>
<defs>
<clipPath id="clip0_89_50">
<rect width="14" height="14" fill="white" transform="translate(5.5 5)"/>
</clipPath>
</defs>
</svg>
