<svg width="18" height="18" viewBox="0 0 18 18" fill="none" xmlns="http://www.w3.org/2000/svg">
<path d="M18 9.2025C18 8.61 17.9464 8.0475 17.8544 7.5H9.1954V10.8825H14.1533C13.931 11.9925 13.2797 12.93 12.3142 13.5675V15.8175H15.272C17.0038 14.25 18 11.94 18 9.2025Z" fill="#4285F4"/>
<path d="M9.1954 18C11.6782 18 13.7548 17.19 15.272 15.8175L12.3142 13.5675C11.4866 14.1075 10.4368 14.4375 9.1954 14.4375C6.79693 14.4375 4.76628 12.855 4.03831 10.7175H0.988506V13.035C2.49808 15.975 5.60153 18 9.1954 18Z" fill="#34A853"/>
<path d="M4.03831 10.7175C3.84674 10.1775 3.74713 9.6 3.74713 9C3.74713 8.4 3.85441 7.8225 4.03831 7.2825V4.965H0.988506C0.360153 6.18 0 7.545 0 9C0 10.455 0.360153 11.82 0.988506 13.035L4.03831 10.7175Z" fill="#FBBC05"/>
<path d="M9.1954 3.5625C10.5517 3.5625 11.7625 4.02 12.7203 4.9125L15.341 2.3475C13.7548 0.8925 11.6782 0 9.1954 0C5.60153 0 2.49808 2.025 0.988506 4.965L4.03831 7.2825C4.76628 5.145 6.79693 3.5625 9.1954 3.5625Z" fill="#EA4335"/>
</svg>
