<svg width="48" height="50" viewBox="0 0 48 50" fill="none" xmlns="http://www.w3.org/2000/svg">
<rect width="48" height="48" rx="16" fill="url(#paint0_linear_169_159)"/>
<g opacity="0.25" filter="url(#filter0_f_169_159)">
<rect x="7.23145" y="24" width="32.6987" height="20.4367" rx="10.2183" fill="url(#paint1_linear_169_159)"/>
</g>
<rect x="6.23999" y="6.24023" width="35.4236" height="35.4236" rx="17.7118" fill="url(#paint2_linear_169_159)"/>
<g filter="url(#filter1_i_169_159)">
<path d="M18.5749 32.4759V20.6039H14.6323V32.4759H18.5753H18.5749ZM16.6044 18.9832C17.979 18.9832 18.8347 18.0716 18.8347 16.9323C18.809 15.7671 17.979 14.8809 16.6306 14.8809C15.2812 14.8809 14.3999 15.7671 14.3999 16.9322C14.3999 18.0715 15.2554 18.9831 16.5786 18.9831H16.6041L16.6044 18.9832ZM20.7572 32.4759H24.6994V25.8468C24.6994 25.4924 24.7252 25.1371 24.8293 24.884C25.1142 24.1748 25.7629 23.4407 26.8523 23.4407C28.2785 23.4407 28.8494 24.5293 28.8494 26.1254V32.4759H32.7916V25.6689C32.7916 22.0224 30.8468 20.3255 28.253 20.3255C26.1264 20.3255 25.1924 21.5152 24.6735 22.3255H24.6997V20.6043H20.7574C20.8088 21.718 20.7571 32.4764 20.7571 32.4764L20.7572 32.4759Z" fill="white"/>
</g>
<defs>
<filter id="filter0_f_169_159" x="1.77145" y="18.54" width="43.6187" height="31.3575" filterUnits="userSpaceOnUse" color-interpolation-filters="sRGB">
<feFlood flood-opacity="0" result="BackgroundImageFix"/>
<feBlend mode="normal" in="SourceGraphic" in2="BackgroundImageFix" result="shape"/>
<feGaussianBlur stdDeviation="2.73" result="effect1_foregroundBlur_169_159"/>
</filter>
<filter id="filter1_i_169_159" x="12.96" y="12.9609" width="21.6" height="22.0996" filterUnits="userSpaceOnUse" color-interpolation-filters="sRGB">
<feFlood flood-opacity="0" result="BackgroundImageFix"/>
<feBlend mode="normal" in="SourceGraphic" in2="BackgroundImageFix" result="shape"/>
<feColorMatrix in="SourceAlpha" type="matrix" values="0 0 0 0 0 0 0 0 0 0 0 0 0 0 0 0 0 0 127 0" result="hardAlpha"/>
<feOffset dy="0.5"/>
<feGaussianBlur stdDeviation="1.25"/>
<feComposite in2="hardAlpha" operator="arithmetic" k2="-1" k3="1"/>
<feColorMatrix type="matrix" values="0 0 0 0 0 0 0 0 0 0 0 0 0 0 0 0 0 0 0.1 0"/>
<feBlend mode="normal" in2="shape" result="effect1_innerShadow_169_159"/>
</filter>
<linearGradient id="paint0_linear_169_159" x1="4.03493" y1="3.1441" x2="39.6681" y2="48" gradientUnits="userSpaceOnUse">
<stop stop-color="#FBFBFC"/>
<stop offset="1" stop-color="#DBDDE8"/>
</linearGradient>
<linearGradient id="paint1_linear_169_159" x1="25.8407" y1="45.0462" x2="19.1756" y2="21.5541" gradientUnits="userSpaceOnUse">
<stop stop-color="#006699"/>
<stop offset="1" stop-color="#058CCF"/>
</linearGradient>
<linearGradient id="paint2_linear_169_159" x1="26.4" y1="42.7202" x2="9.83999" y2="6.24023" gradientUnits="userSpaceOnUse">
<stop stop-color="#006699"/>
<stop offset="1" stop-color="#058CCF"/>
</linearGradient>
</defs>
</svg>
