<svg width="9" height="14" viewBox="0 0 9 14" fill="none" xmlns="http://www.w3.org/2000/svg">
<g id="Medium-S">
<path id="Vector" d="M1.31773 14.0002H7.63116C8.51521 14.0002 8.94888 13.5665 8.94888 12.6074V7.75348C8.94888 6.90281 8.5986 6.46078 7.89804 6.37738V4.72604C7.89804 2.16565 6.17999 0.998047 4.4786 0.998047C2.7689 0.998047 1.05918 2.16565 1.05918 4.72604V6.4024C0.400324 6.5275 -7.62939e-06 6.96119 -7.62939e-06 7.75348V12.6074C-7.62939e-06 13.5665 0.442017 14.0002 1.31773 14.0002ZM2.43531 4.57592C2.43531 3.08306 3.38607 2.31577 4.4786 2.31577C5.56282 2.31577 6.52192 3.08306 6.52192 4.57592V6.36069L2.43531 6.36904V4.57592Z" fill="#9E9E9E"/>
</g>
</svg>
