<svg width="404" height="18" viewBox="0 0 404 18" fill="none" xmlns="http://www.w3.org/2000/svg">
<line x1="177" y1="9.5" x2="4.37114e-08" y2="9.50002" stroke="#E3E4EA"/>
<path d="M199.489 15.168C198.798 15.168 198.154 15.0467 197.557 14.804C196.969 14.5613 196.451 14.2207 196.003 13.782C195.564 13.3433 195.219 12.816 194.967 12.2C194.724 11.584 194.603 10.9073 194.603 10.17C194.603 9.37667 194.743 8.63467 195.023 7.944C195.303 7.244 195.695 6.628 196.199 6.096C196.703 5.564 197.291 5.14867 197.963 4.85C198.644 4.55133 199.381 4.402 200.175 4.402C200.875 4.402 201.519 4.52333 202.107 4.766C202.704 5.00867 203.222 5.354 203.661 5.802C204.109 6.24067 204.454 6.768 204.697 7.384C204.949 7.99067 205.075 8.66267 205.075 9.4C205.075 10.1933 204.93 10.94 204.641 11.64C204.361 12.3307 203.969 12.942 203.465 13.474C202.961 14.006 202.368 14.4213 201.687 14.72C201.005 15.0187 200.273 15.168 199.489 15.168ZM199.503 14.118C200.147 14.118 200.739 13.992 201.281 13.74C201.822 13.488 202.293 13.1427 202.695 12.704C203.096 12.2653 203.404 11.766 203.619 11.206C203.843 10.646 203.955 10.0533 203.955 9.428C203.955 8.68133 203.796 8.00933 203.479 7.412C203.171 6.81467 202.732 6.33867 202.163 5.984C201.603 5.62933 200.94 5.452 200.175 5.452C199.531 5.452 198.938 5.578 198.397 5.83C197.855 6.082 197.384 6.42733 196.983 6.866C196.581 7.30467 196.269 7.804 196.045 8.364C195.83 8.924 195.723 9.51667 195.723 10.142C195.723 10.8793 195.881 11.5513 196.199 12.158C196.516 12.7553 196.955 13.2313 197.515 13.586C198.084 13.9407 198.747 14.118 199.503 14.118ZM206.361 15L207.411 7.496H208.475L208.307 8.728L208.167 8.546C208.4 8.19133 208.708 7.91133 209.091 7.706C209.483 7.50067 209.935 7.398 210.449 7.398H210.925L210.771 8.448H210.113C209.571 8.448 209.114 8.62067 208.741 8.966C208.377 9.31133 208.143 9.82933 208.041 10.52L207.425 15H206.361Z" fill="#7B7F95"/>
<line x1="404" y1="9.5" x2="227" y2="9.50002" stroke="#E3E4EA"/>
</svg>
