<svg width="99" height="20" viewBox="0 0 99 20" fill="none" xmlns="http://www.w3.org/2000/svg">
<path d="M8.49467 12.3969C8.91045 12.3969 9.26225 12.056 9.26225 11.6513V3.34416L9.1983 2.06613L9.64605 2.55604L10.8188 3.82343C10.9574 3.97254 11.1493 4.04709 11.3305 4.04709C11.7356 4.04709 12.0341 3.77017 12.0341 3.38676C12.0341 3.17377 11.9488 3.02467 11.7996 2.88621L9.04905 0.255589C8.85715 0.0638861 8.69722 0 8.49467 0C8.30277 0 8.14286 0.0638861 7.94029 0.255589L5.18977 2.88621C5.05117 3.02467 4.96589 3.17377 4.96589 3.38676C4.96589 3.77017 5.25372 4.04709 5.65885 4.04709C5.84009 4.04709 6.04264 3.97254 6.18124 3.82343L7.35395 2.55604L7.80171 2.06613L7.73774 3.34416V11.6513C7.73774 12.056 8.08955 12.3969 8.49467 12.3969ZM3.71855 19H13.2814C15.1045 19 16 18.1054 16 16.3161V8.12611C16 6.33688 15.1045 5.44225 13.2814 5.44225H10.9893V6.98654H13.2601C14.0171 6.98654 14.4648 7.4019 14.4648 8.20066V16.2416C14.4648 17.051 14.0171 17.4557 13.2601 17.4557H3.73988C2.97228 17.4557 2.53519 17.051 2.53519 16.2416V8.20066C2.53519 7.4019 2.97228 6.98654 3.73988 6.98654H6.01065V5.44225H3.71855C1.90618 5.44225 1 6.33688 1 8.12611V16.3161C1 18.1054 1.90618 19 3.71855 19Z" fill="#767676"/>
<path d="M49.0166 17.6394C49.4887 17.6394 49.8749 17.2639 49.8749 16.7918V11.3738H55.1642C55.6255 11.3738 56.0225 10.9768 56.0225 10.5047C56.0225 10.0327 55.6255 9.6357 55.1642 9.6357H49.8749V4.20694C49.8749 3.73489 49.4887 3.35938 49.0166 3.35938C48.5446 3.35938 48.1476 3.73489 48.1476 4.20694V9.6357H42.869C42.397 9.6357 42 10.0327 42 10.5047C42 10.9768 42.397 11.3738 42.869 11.3738H48.1476V16.7918C48.1476 17.2639 48.5446 17.6394 49.0166 17.6394Z" fill="#767676"/>
<path d="M83.6778 15.2898H84.9793V16.5913C84.9793 18.3407 85.854 19.2049 87.6346 19.2049H95.8189C97.5891 19.2049 98.4742 18.3407 98.4742 16.5913V8.32366C98.4742 6.57434 97.5891 5.71009 95.8189 5.71009H94.5174V4.40851C94.5174 2.65917 93.6323 1.79492 91.8621 1.79492H83.6778C81.8972 1.79492 81.0225 2.65917 81.0225 4.40851V12.6762C81.0225 14.4255 81.8972 15.2898 83.6778 15.2898ZM83.6986 13.7903C82.9489 13.7903 82.522 13.3842 82.522 12.5929V4.49181C82.522 3.70045 82.9489 3.29436 83.6986 3.29436H91.8413C92.591 3.29436 93.0179 3.70045 93.0179 4.49181V5.71009H87.6346C85.854 5.71009 84.9793 6.57434 84.9793 8.32366V13.7903H83.6986ZM87.6554 17.7055C86.9057 17.7055 86.4788 17.2994 86.4788 16.508V8.40698C86.4788 7.6156 86.9057 7.20951 87.6554 7.20951H95.7981C96.5478 7.20951 96.9747 7.6156 96.9747 8.40698V16.508C96.9747 17.2994 96.5478 17.7055 95.7981 17.7055H87.6554Z" fill="#767676"/>
</svg>
