<svg width="24" height="24" viewBox="0 0 24 24" fill="none" xmlns="http://www.w3.org/2000/svg">
<path d="M4.85706 17.8036C4.65938 17.6786 4.47044 17.5379 4.29218 17.3821C3.38147 16.586 2.82432 15.4607 2.74329 14.2538C2.66225 13.0469 3.06397 11.8573 3.86008 10.9466C4.25427 10.4956 4.73342 10.1267 5.27017 9.86098C5.80691 9.59522 6.39075 9.43779 6.98835 9.39766C7.05036 9.39902 7.11148 9.3826 7.16446 9.35035C7.21745 9.31809 7.26011 9.27135 7.28739 9.21564C7.69963 8.02083 8.50902 7.00346 9.58059 6.33319C10.6521 5.66292 11.9211 5.38026 13.1759 5.53235C14.4306 5.68444 15.5953 6.26208 16.4757 7.16896C17.3561 8.07583 17.8989 9.25711 18.0138 10.5158C18.0234 10.5821 18.0518 10.6442 18.0955 10.6949C18.1393 10.7456 18.1967 10.7827 18.2608 10.8018C19.1899 11.0207 20.0065 11.5727 20.5559 12.3532C21.1053 13.1337 21.3495 14.0886 21.2421 15.0371C21.1348 15.9855 20.6834 16.8617 19.9734 17.4997C19.7205 17.727 19.441 17.9184 19.1428 18.0709" stroke="#22222A" stroke-linecap="round" stroke-linejoin="round"/>
<path d="M13.5827 14.7793L10.4153 16.363" stroke="#22222A" stroke-linecap="round" stroke-linejoin="round"/>
<circle cx="14.857" cy="14.1434" r="1.42857" stroke="#22222A" stroke-linecap="round" stroke-linejoin="round"/>
<circle cx="9.14293" cy="17.0008" r="1.42857" stroke="#22222A" stroke-linecap="round" stroke-linejoin="round"/>
<circle cx="14.857" cy="19.8563" r="1.42857" stroke="#22222A" stroke-linecap="round" stroke-linejoin="round"/>
<path d="M10.4153 17.6367L13.5827 19.2204" stroke="#22222A" stroke-linecap="round" stroke-linejoin="round"/>
</svg>
