<svg width="98" height="99" viewBox="0 0 98 99" fill="none" xmlns="http://www.w3.org/2000/svg">
<rect x="13" width="72" height="72" rx="24" fill="#F4F5F7"/>
<g filter="url(#filter0_dii_69_292)">
<g filter="url(#filter1_d_69_292)">
<path fill-rule="evenodd" clip-rule="evenodd" d="M42.3528 11.0762C39.5973 11.0782 37.3673 13.3099 37.3694 16.0598C37.3673 18.8097 39.5994 21.0413 42.3548 21.0434H47.3402V16.0618C47.3423 13.3119 45.1102 11.0802 42.3528 11.0762C42.3548 11.0762 42.3548 11.0762 42.3528 11.0762ZM42.3528 24.3685H29.0624C26.3069 24.3705 24.0749 26.6022 24.0769 29.3521C24.0729 32.102 26.3049 34.3337 29.0603 34.3377H42.3528C45.1082 34.3357 47.3402 32.104 47.3382 29.3541C47.3402 26.6022 45.1082 24.3705 42.3528 24.3685Z" fill="black"/>
<path fill-rule="evenodd" clip-rule="evenodd" d="M73.9231 29.3521C73.9251 26.6022 71.6931 24.3705 68.9376 24.3685C66.1822 24.3705 63.9502 26.6022 63.9522 29.3521V34.3377H68.9376C71.6931 34.3357 73.9251 32.104 73.9231 29.3521ZM60.6306 29.3521V16.0598C60.6327 13.3119 58.4027 11.0802 55.6472 11.0762C52.8918 11.0782 50.6598 13.3098 50.6618 16.0598V29.3521C50.6577 32.102 52.8898 34.3336 55.6452 34.3377C58.4006 34.3357 60.6327 32.104 60.6306 29.3521Z" fill="black"/>
<path fill-rule="evenodd" clip-rule="evenodd" d="M55.6452 60.9223C58.4006 60.9203 60.6327 58.6886 60.6306 55.9387C60.6327 53.1888 58.4006 50.9572 55.6452 50.9551H50.6598V55.9387C50.6577 58.6866 52.8898 60.9183 55.6452 60.9223ZM55.6452 47.628H68.9376C71.6931 47.6259 73.9251 45.3943 73.9231 42.6444C73.9271 39.8945 71.6951 37.6628 68.9397 37.6588H55.6472C52.8918 37.6608 50.6598 39.8924 50.6618 42.6424C50.6598 45.3943 52.8898 47.6259 55.6452 47.628Z" fill="black"/>
<path fill-rule="evenodd" clip-rule="evenodd" d="M24.0769 42.6444C24.0749 45.3943 26.3069 47.6259 29.0624 47.628C31.8178 47.6259 34.0498 45.3943 34.0478 42.6444V37.6608H29.0624C26.3069 37.6628 24.0749 39.8945 24.0769 42.6444ZM37.3694 42.6444V55.9367C37.3653 58.6866 39.5973 60.9183 42.3528 60.9223C45.1082 60.9203 47.3402 58.6886 47.3382 55.9387V42.6484C47.3423 39.8985 45.1102 37.6669 42.3548 37.6628C39.5973 37.6628 37.3673 39.8945 37.3694 42.6444Z" fill="black"/>
</g>
<path fill-rule="evenodd" clip-rule="evenodd" d="M42.3528 11.0762C39.5973 11.0782 37.3673 13.3098 37.3694 16.0598C37.3673 18.8097 39.5994 21.0413 42.3548 21.0434H47.3402V16.0618C47.3423 13.3119 45.1102 11.0802 42.3528 11.0762C42.3548 11.0762 42.3548 11.0762 42.3528 11.0762V11.0762ZM42.3528 24.3685H29.0624C26.3069 24.3705 24.0749 26.6022 24.0769 29.3521C24.0729 32.102 26.3049 34.3336 29.0603 34.3377H42.3528C45.1082 34.3357 47.3402 32.104 47.3382 29.3541C47.3402 26.6022 45.1082 24.3705 42.3528 24.3685V24.3685Z" fill="#36C5F0"/>
<path fill-rule="evenodd" clip-rule="evenodd" d="M73.9231 29.3521C73.9251 26.6022 71.6931 24.3705 68.9377 24.3685C66.1822 24.3705 63.9502 26.6022 63.9522 29.3521V34.3377H68.9377C71.6931 34.3357 73.9251 32.104 73.9231 29.3521ZM60.6306 29.3521V16.0598C60.6327 13.3119 58.4027 11.0802 55.6473 11.0762C52.8918 11.0782 50.6598 13.3098 50.6618 16.0598V29.3521C50.6578 32.102 52.8898 34.3336 55.6452 34.3377C58.4006 34.3357 60.6327 32.104 60.6306 29.3521Z" fill="#2EB67D"/>
<path fill-rule="evenodd" clip-rule="evenodd" d="M55.6452 60.9218C58.4006 60.9197 60.6327 58.6881 60.6306 55.9382C60.6327 53.1883 58.4006 50.9566 55.6452 50.9546H50.6598V55.9382C50.6578 58.6861 52.8898 60.9177 55.6452 60.9218ZM55.6452 47.6274H68.9377C71.6931 47.6254 73.9251 45.3938 73.9231 42.6438C73.9272 39.8939 71.6951 37.6623 68.9397 37.6582H55.6473C52.8918 37.6602 50.6598 39.8919 50.6618 42.6418C50.6598 45.3938 52.8898 47.6254 55.6452 47.6274V47.6274Z" fill="#ECB22E"/>
<path fill-rule="evenodd" clip-rule="evenodd" d="M24.077 42.6438C24.0749 45.3937 26.307 47.6253 29.0624 47.6274C31.8178 47.6253 34.0498 45.3937 34.0478 42.6438V37.6602H29.0624C26.307 37.6622 24.0749 39.8938 24.077 42.6438ZM37.3694 42.6438V55.9361C37.3653 58.686 39.5974 60.9176 42.3528 60.9217C45.1082 60.9197 47.3402 58.688 47.3382 55.9381V42.6478C47.3423 39.8979 45.1102 37.6663 42.3548 37.6622C39.5974 37.6622 37.3674 39.8938 37.3694 42.6438C37.3694 42.6458 37.3694 42.6438 37.3694 42.6438Z" fill="#E01E5A"/>
</g>
<defs>
<filter id="filter0_dii_69_292" x="0.0769196" y="1.07617" width="97.8462" height="97.8457" filterUnits="userSpaceOnUse" color-interpolation-filters="sRGB">
<feFlood flood-opacity="0" result="BackgroundImageFix"/>
<feColorMatrix in="SourceAlpha" type="matrix" values="0 0 0 0 0 0 0 0 0 0 0 0 0 0 0 0 0 0 127 0" result="hardAlpha"/>
<feOffset dy="14"/>
<feGaussianBlur stdDeviation="12"/>
<feColorMatrix type="matrix" values="0 0 0 0 0.0980392 0 0 0 0 0.0980392 0 0 0 0 0.172549 0 0 0 0.16 0"/>
<feBlend mode="normal" in2="BackgroundImageFix" result="effect1_dropShadow_69_292"/>
<feBlend mode="normal" in="SourceGraphic" in2="effect1_dropShadow_69_292" result="shape"/>
<feColorMatrix in="SourceAlpha" type="matrix" values="0 0 0 0 0 0 0 0 0 0 0 0 0 0 0 0 0 0 127 0" result="hardAlpha"/>
<feOffset dy="-10"/>
<feGaussianBlur stdDeviation="6"/>
<feComposite in2="hardAlpha" operator="arithmetic" k2="-1" k3="1"/>
<feColorMatrix type="matrix" values="0 0 0 0 0.0980392 0 0 0 0 0.0980392 0 0 0 0 0.172549 0 0 0 0.32 0"/>
<feBlend mode="normal" in2="shape" result="effect2_innerShadow_69_292"/>
<feColorMatrix in="SourceAlpha" type="matrix" values="0 0 0 0 0 0 0 0 0 0 0 0 0 0 0 0 0 0 127 0" result="hardAlpha"/>
<feOffset dy="-4"/>
<feGaussianBlur stdDeviation="2"/>
<feComposite in2="hardAlpha" operator="arithmetic" k2="-1" k3="1"/>
<feColorMatrix type="matrix" values="0 0 0 0 1 0 0 0 0 1 0 0 0 0 1 0 0 0 0.24 0"/>
<feBlend mode="normal" in2="effect2_innerShadow_69_292" result="effect3_innerShadow_69_292"/>
</filter>
<filter id="filter1_d_69_292" x="23.4128" y="10.7441" width="51.1744" height="51.174" filterUnits="userSpaceOnUse" color-interpolation-filters="sRGB">
<feFlood flood-opacity="0" result="BackgroundImageFix"/>
<feColorMatrix in="SourceAlpha" type="matrix" values="0 0 0 0 0 0 0 0 0 0 0 0 0 0 0 0 0 0 127 0" result="hardAlpha"/>
<feOffset dy="0.332072"/>
<feGaussianBlur stdDeviation="0.332072"/>
<feColorMatrix type="matrix" values="0 0 0 0 0 0 0 0 0 0 0 0 0 0 0 0 0 0 0.25 0"/>
<feBlend mode="normal" in2="BackgroundImageFix" result="effect1_dropShadow_69_292"/>
<feBlend mode="normal" in="SourceGraphic" in2="effect1_dropShadow_69_292" result="shape"/>
</filter>
</defs>
</svg>
