<svg width="24" height="24" viewBox="0 0 24 24" fill="none" xmlns="http://www.w3.org/2000/svg">
<path d="M4.1428 4.85742C3.76392 4.85742 3.40056 5.00793 3.13265 5.27584C2.86474 5.54375 2.71423 5.90711 2.71423 6.28599V19.8574C2.71423 20.2363 2.86474 20.5997 3.13265 20.8676C3.40056 21.1355 3.76392 21.286 4.1428 21.286H19.8571C20.236 21.286 20.5993 21.1355 20.8672 20.8676C21.1352 20.5997 21.2857 20.2363 21.2857 19.8574V6.28599C21.2857 5.90711 21.1352 5.54375 20.8672 5.27584C20.5993 5.00793 20.236 4.85742 19.8571 4.85742H16.9999" stroke="#22222A" stroke-linecap="round" stroke-linejoin="round"/>
<path d="M7 2.71484V7.00056" stroke="#22222A" stroke-linecap="round" stroke-linejoin="round"/>
<path d="M17 2.71484V7.00056" stroke="#22222A" stroke-linecap="round" stroke-linejoin="round"/>
<path d="M4.14282 4.85742H16.2857" stroke="#22222A" stroke-linecap="round" stroke-linejoin="round"/>
<path d="M12.3552 8.64546L13.5503 11.0497C13.5771 11.1105 13.6194 11.1631 13.6732 11.2022C13.7269 11.2412 13.79 11.2654 13.8561 11.272L16.5105 11.6751C16.5863 11.6849 16.6578 11.7162 16.7166 11.7652C16.7754 11.8143 16.819 11.879 16.8423 11.9519C16.8656 12.0248 16.8677 12.1028 16.8483 12.1768C16.8289 12.2508 16.7889 12.3178 16.7328 12.3699L14.7733 14.2322C14.7441 14.2879 14.7288 14.3499 14.7288 14.4128C14.7288 14.4758 14.7441 14.5377 14.7733 14.5935L15.1485 17.234C15.1645 17.3103 15.1581 17.3896 15.1299 17.4623C15.1017 17.535 15.053 17.598 14.9898 17.6436C14.9265 17.6892 14.8514 17.7155 14.7735 17.7193C14.6956 17.723 14.6183 17.7041 14.5509 17.6648L12.1884 16.414C12.1273 16.3864 12.0609 16.3721 11.9938 16.3721C11.9268 16.3721 11.8604 16.3864 11.7993 16.414L9.43675 17.6648C9.3694 17.7041 9.29209 17.723 9.2142 17.7193C9.1363 17.7155 9.06118 17.6892 8.99792 17.6436C8.93466 17.598 8.88599 17.535 8.85781 17.4623C8.82964 17.3896 8.82316 17.3103 8.83917 17.234L9.28388 14.5935C9.303 14.5322 9.30667 14.4671 9.29454 14.4041C9.28242 14.341 9.25488 14.282 9.21439 14.2322L7.25488 12.356C7.2029 12.3034 7.16642 12.2374 7.14944 12.1654C7.13245 12.0934 7.13561 12.0181 7.15858 11.9478C7.18154 11.8775 7.22342 11.8148 7.27963 11.7667C7.33584 11.7186 7.4042 11.6869 7.47724 11.6751L10.1316 11.2859C10.1977 11.2793 10.2608 11.2551 10.3145 11.2161C10.3682 11.177 10.4106 11.1244 10.4374 11.0636L11.6325 8.65936C11.6645 8.5913 11.7149 8.53354 11.778 8.49263C11.8411 8.45171 11.9143 8.42925 11.9895 8.42781C12.0647 8.42636 12.1388 8.44598 12.2034 8.48444C12.268 8.52291 12.3206 8.57868 12.3552 8.64546Z" fill="url(#paint0_linear_370_334)"/>
<defs>
<linearGradient id="paint0_linear_370_334" x1="7.13867" y1="8.62336" x2="10.1252" y2="19.333" gradientUnits="userSpaceOnUse">
<stop stop-color="#3F67AD"/>
<stop offset="0.516353" stop-color="#7084B3"/>
<stop offset="1" stop-color="#FF8F94"/>
</linearGradient>
</defs>
</svg>
