<svg width="105" height="100" viewBox="0 0 105 100" fill="none" xmlns="http://www.w3.org/2000/svg">
<rect x="18" width="72" height="72" rx="24" fill="#F4F5F7"/>
<g filter="url(#filter0_diii_69_294)">
<path fill-rule="evenodd" clip-rule="evenodd" d="M65.1445 59.7413C65.9166 59.8918 66.7257 59.8144 67.4397 59.5219L78.9915 54.7789C79.5865 54.5346 80.0886 54.1517 80.4399 53.6743C80.7912 53.1969 80.9774 52.6445 80.9772 52.0807V19.9221C80.9774 19.3583 80.7912 18.8059 80.4399 18.3285C80.0886 17.8512 79.5865 17.4683 78.9915 17.224L67.4397 12.481C66.6223 12.1454 65.6845 12.0936 64.8233 12.3363C64.3083 12.4837 63.8405 12.7313 63.4567 13.0595L44.8383 30.645L33.964 23.0343L33.012 22.336C32.7257 22.127 32.3845 21.9802 32.0174 21.9081C31.6503 21.836 31.2682 21.8408 30.9037 21.9221C30.797 21.9422 30.6932 21.9723 30.5942 22.0118L26.3484 23.533C25.951 23.6731 25.6066 23.9042 25.3532 24.2007C25.0997 24.4973 24.9469 24.8478 24.9118 25.2137C24.9118 25.2636 24.9118 25.3135 24.9118 25.3634V46.6395C24.9118 46.6894 24.9118 46.7392 24.9118 46.7891C24.9469 47.155 25.0997 47.5056 25.3532 47.8021C25.6066 48.0987 25.951 48.3297 26.3484 48.4699L30.5942 49.9661C30.6932 50.0056 30.797 50.0357 30.9037 50.0559C31.2682 50.1371 31.6503 50.1419 32.0174 50.0698C32.3845 49.9978 32.7257 49.8509 33.012 49.6419L33.964 48.9686L44.8383 41.3579L63.4567 58.9434C63.9208 59.339 64.5056 59.6154 65.1445 59.7413ZM66.9608 25.8671L52.4831 36.0014L66.9608 46.1358V25.8671ZM31.9199 29.1538L39.1676 36.0014L31.9199 42.8491V29.1538Z" fill="url(#paint0_linear_69_294)"/>
<path fill-rule="evenodd" clip-rule="evenodd" d="M65.1445 59.7413C65.9166 59.8918 66.7257 59.8144 67.4397 59.5219L78.9915 54.7789C79.5865 54.5346 80.0886 54.1517 80.4399 53.6743C80.7912 53.1969 80.9774 52.6445 80.9772 52.0807V19.9221C80.9774 19.3583 80.7912 18.8059 80.4399 18.3285C80.0886 17.8512 79.5865 17.4683 78.9915 17.224L67.4397 12.481C66.6223 12.1454 65.6845 12.0936 64.8233 12.3363C64.3083 12.4837 63.8405 12.7313 63.4567 13.0595L44.8383 30.645L33.964 23.0343L33.012 22.336C32.7257 22.127 32.3845 21.9802 32.0174 21.9081C31.6503 21.836 31.2682 21.8408 30.9037 21.9221C30.797 21.9422 30.6932 21.9723 30.5942 22.0118L26.3484 23.533C25.951 23.6731 25.6066 23.9042 25.3532 24.2007C25.0997 24.4973 24.9469 24.8478 24.9118 25.2137C24.9118 25.2636 24.9118 25.3135 24.9118 25.3634V46.6395C24.9118 46.6894 24.9118 46.7392 24.9118 46.7891C24.9469 47.155 25.0997 47.5056 25.3532 47.8021C25.6066 48.0987 25.951 48.3297 26.3484 48.4699L30.5942 49.9661C30.6932 50.0056 30.797 50.0357 30.9037 50.0559C31.2682 50.1371 31.6503 50.1419 32.0174 50.0698C32.3845 49.9978 32.7257 49.8509 33.012 49.6419L33.964 48.9686L44.8383 41.3579L63.4567 58.9434C63.9208 59.339 64.5056 59.6154 65.1445 59.7413ZM66.9608 25.8671L52.4831 36.0014L66.9608 46.1358V25.8671ZM31.9199 29.1538L39.1676 36.0014L31.9199 42.8491V29.1538Z" fill="url(#paint1_radial_69_294)" fill-opacity="0.8"/>
<path fill-rule="evenodd" clip-rule="evenodd" d="M65.1445 59.7413C65.9166 59.8918 66.7257 59.8144 67.4397 59.5219L78.9915 54.7789C79.5865 54.5346 80.0886 54.1517 80.4399 53.6743C80.7912 53.1969 80.9774 52.6445 80.9772 52.0807V19.9221C80.9774 19.3583 80.7912 18.8059 80.4399 18.3285C80.0886 17.8512 79.5865 17.4683 78.9915 17.224L67.4397 12.481C66.6223 12.1454 65.6845 12.0936 64.8233 12.3363C64.3083 12.4837 63.8405 12.7313 63.4567 13.0595L44.8383 30.645L33.964 23.0343L33.012 22.336C32.7257 22.127 32.3845 21.9802 32.0174 21.9081C31.6503 21.836 31.2682 21.8408 30.9037 21.9221C30.797 21.9422 30.6932 21.9723 30.5942 22.0118L26.3484 23.533C25.951 23.6731 25.6066 23.9042 25.3532 24.2007C25.0997 24.4973 24.9469 24.8478 24.9118 25.2137C24.9118 25.2636 24.9118 25.3135 24.9118 25.3634V46.6395C24.9118 46.6894 24.9118 46.7392 24.9118 46.7891C24.9469 47.155 25.0997 47.5056 25.3532 47.8021C25.6066 48.0987 25.951 48.3297 26.3484 48.4699L30.5942 49.9661C30.6932 50.0056 30.797 50.0357 30.9037 50.0559C31.2682 50.1371 31.6503 50.1419 32.0174 50.0698C32.3845 49.9978 32.7257 49.8509 33.012 49.6419L33.964 48.9686L44.8383 41.3579L63.4567 58.9434C63.9208 59.339 64.5056 59.6154 65.1445 59.7413ZM66.9608 25.8671L52.4831 36.0014L66.9608 46.1358V25.8671ZM31.9199 29.1538L39.1676 36.0014L31.9199 42.8491V29.1538Z" fill="url(#paint2_radial_69_294)" fill-opacity="0.8"/>
<path fill-rule="evenodd" clip-rule="evenodd" d="M65.1445 59.7413C65.9166 59.8918 66.7257 59.8144 67.4397 59.5219L78.9915 54.7789C79.5865 54.5346 80.0886 54.1517 80.4399 53.6743C80.7912 53.1969 80.9774 52.6445 80.9772 52.0807V19.9221C80.9774 19.3583 80.7912 18.8059 80.4399 18.3285C80.0886 17.8512 79.5865 17.4683 78.9915 17.224L67.4397 12.481C66.6223 12.1454 65.6845 12.0936 64.8233 12.3363C64.3083 12.4837 63.8405 12.7313 63.4567 13.0595L44.8383 30.645L33.964 23.0343L33.012 22.336C32.7257 22.127 32.3845 21.9802 32.0174 21.9081C31.6503 21.836 31.2682 21.8408 30.9037 21.9221C30.797 21.9422 30.6932 21.9723 30.5942 22.0118L26.3484 23.533C25.951 23.6731 25.6066 23.9042 25.3532 24.2007C25.0997 24.4973 24.9469 24.8478 24.9118 25.2137C24.9118 25.2636 24.9118 25.3135 24.9118 25.3634V46.6395C24.9118 46.6894 24.9118 46.7392 24.9118 46.7891C24.9469 47.155 25.0997 47.5056 25.3532 47.8021C25.6066 48.0987 25.951 48.3297 26.3484 48.4699L30.5942 49.9661C30.6932 50.0056 30.797 50.0357 30.9037 50.0559C31.2682 50.1371 31.6503 50.1419 32.0174 50.0698C32.3845 49.9978 32.7257 49.8509 33.012 49.6419L33.964 48.9686L44.8383 41.3579L63.4567 58.9434C63.9208 59.339 64.5056 59.6154 65.1445 59.7413ZM66.9608 25.8671L52.4831 36.0014L66.9608 46.1358V25.8671ZM31.9199 29.1538L39.1676 36.0014L31.9199 42.8491V29.1538Z" fill="url(#paint3_radial_69_294)" fill-opacity="0.8"/>
</g>
<path fill-rule="evenodd" clip-rule="evenodd" d="M31.9199 29.1668L27.2478 24.7554C27.064 24.5869 26.8253 24.4693 26.5624 24.4178C26.2996 24.3664 26.0247 24.3833 25.7733 24.4665C25.5219 24.5497 25.3054 24.6954 25.1518 24.8846C24.9982 25.0739 24.9146 25.2982 24.9117 25.5285V46.4756C24.9147 46.7058 24.9983 46.93 25.1518 47.1192C25.3054 47.3085 25.5219 47.4541 25.7733 47.5373C26.0247 47.6206 26.2996 47.6375 26.5624 47.586C26.8253 47.5345 27.064 47.4169 27.2478 47.2484L31.9199 42.837V29.1668ZM26.3484 48.4703C25.9249 48.3195 25.5628 48.0654 25.3073 47.7399C25.0603 47.4252 24.9235 47.0572 24.9124 46.6791C24.9235 47.0573 25.0603 47.4253 25.3073 47.74C25.5628 48.0655 25.9249 48.3196 26.3484 48.4705L30.5942 49.9916C30.9929 50.1338 31.43 50.1788 31.8568 50.1216C32.2837 50.0643 32.6835 49.9071 33.012 49.6674L33.964 48.9692L33.963 48.9698L33.012 49.6673C32.6835 49.907 32.2836 50.0642 31.8568 50.1214C31.43 50.1787 30.9929 50.1337 30.5942 49.9915L26.3484 48.4703Z" fill="black" fill-opacity="0.32"/>
<path fill-rule="evenodd" clip-rule="evenodd" d="M63.4695 58.9548C63.7553 59.193 64.1163 59.3549 64.5083 59.4208C64.9063 59.4876 65.3185 59.4525 65.693 59.3197C66.0676 59.187 66.3879 58.9626 66.6134 58.6747C66.839 58.3869 66.9599 58.0486 66.9608 57.7022V46.1398L33.964 23.0349L33.012 22.3367C32.6806 22.1011 32.2793 21.9484 31.8526 21.8956C31.4258 21.8428 30.9903 21.8919 30.5942 22.0374L26.3484 23.5336C25.9249 23.6845 25.5628 23.9386 25.3073 24.2641C25.0518 24.5896 24.9142 24.9721 24.9118 25.364V25.5286C24.9146 25.2983 24.9983 25.0741 25.1518 24.8848C25.3054 24.6955 25.5219 24.5499 25.7733 24.4666C26.0247 24.3834 26.2996 24.3665 26.5624 24.418C26.8253 24.4695 27.064 24.5871 27.2478 24.7556L63.4567 58.944C63.461 58.9476 63.4652 58.9512 63.4695 58.9548ZM80.9771 52.0822C80.9771 52.0803 80.9772 52.0784 80.9772 52.0764L80.9771 52.0814C80.9771 52.0817 80.9771 52.082 80.9771 52.0822Z" fill="black" fill-opacity="0.12"/>
<path d="M67.4397 59.5211C66.7871 59.7876 66.0539 59.875 65.3407 59.7714C64.6276 59.6678 63.9695 59.3783 63.4567 58.9426C63.7445 59.1866 64.1104 59.3524 64.5083 59.4193C64.9063 59.4861 65.3185 59.4509 65.693 59.3182C66.0676 59.1854 66.3878 58.961 66.6134 58.6732C66.839 58.3854 66.9599 58.047 66.9608 57.7007V14.3105C66.9622 13.9633 66.843 13.6236 66.6183 13.3343C66.3936 13.0449 66.0735 12.819 65.6984 12.685C65.3234 12.551 64.9102 12.515 64.5112 12.5815C64.1122 12.648 63.7452 12.8141 63.4567 13.0587C63.9695 12.623 64.6276 12.3335 65.3407 12.2299C66.0539 12.1263 66.7871 12.2137 67.4397 12.4802L78.9915 17.2232C79.5865 17.4675 80.0886 17.8504 80.4399 18.3277C80.7912 18.8051 80.9774 19.3575 80.9771 19.9213V52.0799C80.9774 52.6437 80.7912 53.1962 80.4399 53.6735C80.0886 54.1509 79.5865 54.5338 78.9915 54.7781L67.4397 59.5211Z" fill="white" fill-opacity="0.32"/>
<defs>
<filter id="filter0_diii_69_294" x="0.911755" y="4.18555" width="104.065" height="95.6309" filterUnits="userSpaceOnUse" color-interpolation-filters="sRGB">
<feFlood flood-opacity="0" result="BackgroundImageFix"/>
<feColorMatrix in="SourceAlpha" type="matrix" values="0 0 0 0 0 0 0 0 0 0 0 0 0 0 0 0 0 0 127 0" result="hardAlpha"/>
<feOffset dy="16"/>
<feGaussianBlur stdDeviation="12"/>
<feColorMatrix type="matrix" values="0 0 0 0 0.0980392 0 0 0 0 0.0980392 0 0 0 0 0.172549 0 0 0 0.64 0"/>
<feBlend mode="normal" in2="BackgroundImageFix" result="effect1_dropShadow_69_294"/>
<feBlend mode="normal" in="SourceGraphic" in2="effect1_dropShadow_69_294" result="shape"/>
<feColorMatrix in="SourceAlpha" type="matrix" values="0 0 0 0 0 0 0 0 0 0 0 0 0 0 0 0 0 0 127 0" result="hardAlpha"/>
<feOffset dy="-6.28774"/>
<feGaussianBlur stdDeviation="3.92984"/>
<feComposite in2="hardAlpha" operator="arithmetic" k2="-1" k3="1"/>
<feColorMatrix type="matrix" values="0 0 0 0 0.32 0 0 0 0 0 0 0 0 0 1 0 0 0 0.5 0"/>
<feBlend mode="normal" in2="shape" result="effect2_innerShadow_69_294"/>
<feColorMatrix in="SourceAlpha" type="matrix" values="0 0 0 0 0 0 0 0 0 0 0 0 0 0 0 0 0 0 127 0" result="hardAlpha"/>
<feOffset dy="-4"/>
<feGaussianBlur stdDeviation="2"/>
<feComposite in2="hardAlpha" operator="arithmetic" k2="-1" k3="1"/>
<feColorMatrix type="matrix" values="0 0 0 0 0.975833 0 0 0 0 0.879167 0 0 0 0 1 0 0 0 0.4 0"/>
<feBlend mode="normal" in2="effect2_innerShadow_69_294" result="effect3_innerShadow_69_294"/>
<feColorMatrix in="SourceAlpha" type="matrix" values="0 0 0 0 0 0 0 0 0 0 0 0 0 0 0 0 0 0 127 0" result="hardAlpha"/>
<feOffset dx="0.865107" dy="0.494347"/>
<feGaussianBlur stdDeviation="0.55614"/>
<feComposite in2="hardAlpha" operator="arithmetic" k2="-1" k3="1"/>
<feColorMatrix type="matrix" values="0 0 0 0 1 0 0 0 0 1 0 0 0 0 1 0 0 0 0.15 0"/>
<feBlend mode="normal" in2="effect3_innerShadow_69_294" result="effect4_innerShadow_69_294"/>
</filter>
<linearGradient id="paint0_linear_69_294" x1="80.9772" y1="7.18086" x2="38.7543" y2="70.6584" gradientUnits="userSpaceOnUse">
<stop stop-color="#683DDB"/>
<stop offset="0.527788" stop-color="#8C31FF"/>
<stop offset="1" stop-color="#DC02FF"/>
</linearGradient>
<radialGradient id="paint1_radial_69_294" cx="0" cy="0" r="1" gradientUnits="userSpaceOnUse" gradientTransform="translate(40.1159 1.83103) rotate(97.2382) scale(58.4511 114.18)">
<stop stop-color="#52B6FF"/>
<stop offset="1" stop-color="#8F41EE" stop-opacity="0"/>
</radialGradient>
<radialGradient id="paint2_radial_69_294" cx="0" cy="0" r="1" gradientUnits="userSpaceOnUse" gradientTransform="translate(39.8784 14.9468) rotate(58.1765) scale(24.779 77.2398)">
<stop stop-color="#9DD6FF"/>
<stop offset="1" stop-color="#8F41EE" stop-opacity="0"/>
</radialGradient>
<radialGradient id="paint3_radial_69_294" cx="0" cy="0" r="1" gradientUnits="userSpaceOnUse" gradientTransform="translate(107.584 48.5989) rotate(148.623) scale(45.0776 58.1779)">
<stop stop-color="#5263FF"/>
<stop offset="1" stop-color="#8F41EE" stop-opacity="0"/>
</radialGradient>
</defs>
</svg>
