<svg width="360" height="28" viewBox="0 0 360 28" fill="none" xmlns="http://www.w3.org/2000/svg">
<rect width="360" height="28" rx="5" fill="#F2F2F2"/>
<path d="M347.994 9.00002L350.33 11.3362L347.994 13.6724M353 15.6193C353 18.1998 350.908 20.2917 348.328 20.2917C345.747 20.2917 343.655 18.1998 343.655 15.6193C343.655 13.0388 345.747 10.9468 348.328 10.9468C348.874 10.9468 349.496 10.9468 350.274 11.3362" stroke="#767676" stroke-linecap="round" stroke-linejoin="round"/>
<path d="M86.3177 21.0002H92.6312C93.5152 21.0002 93.9489 20.5665 93.9489 19.6074V14.7535C93.9489 13.9028 93.5986 13.4608 92.898 13.3774V11.726C92.898 9.16565 91.18 7.99805 89.4786 7.99805C87.7689 7.99805 86.0592 9.16565 86.0592 11.726V13.4024C85.4003 13.5275 85 13.9612 85 14.7535V19.6074C85 20.5665 85.442 21.0002 86.3177 21.0002ZM87.4353 11.5759C87.4353 10.0831 88.3861 9.31577 89.4786 9.31577C90.5628 9.31577 91.5219 10.0831 91.5219 11.5759V13.3607L87.4353 13.369V11.5759Z" fill="#9E9E9E"/>
<path d="M101.003 18.5V8.88965H102.355V12.6982H102.463C102.799 11.9238 103.529 11.4604 104.57 11.4604C106.043 11.4604 106.95 12.3936 106.95 14.0376V18.5H105.586V14.374C105.586 13.2695 105.071 12.7109 104.107 12.7109C102.989 12.7109 102.367 13.4155 102.367 14.4629V18.5H101.003ZM109.356 9.86719H110.721V11.6191H112.219V12.7681H110.721V16.3228C110.721 17.0464 111.019 17.3638 111.698 17.3638C111.908 17.3638 112.028 17.3511 112.219 17.332V18.4683C111.997 18.5063 111.743 18.5381 111.476 18.5381C109.959 18.5381 109.356 18.0049 109.356 16.6719V12.7681H108.258V11.6191H109.356V9.86719ZM114.333 9.86719H115.697V11.6191H117.195V12.7681H115.697V16.3228C115.697 17.0464 115.996 17.3638 116.675 17.3638C116.884 17.3638 117.005 17.3511 117.195 17.332V18.4683C116.973 18.5063 116.719 18.5381 116.453 18.5381C114.936 18.5381 114.333 18.0049 114.333 16.6719V12.7681H113.235V11.6191H114.333V9.86719ZM122.388 11.4731C124.146 11.4731 125.257 12.8442 125.257 15.0405C125.257 17.2368 124.146 18.6143 122.401 18.6143C121.417 18.6143 120.636 18.1826 120.274 17.4526H120.166V20.7979H118.801V11.5874H120.115V12.73H120.217C120.636 11.9429 121.448 11.4731 122.388 11.4731ZM122.001 17.3892C123.162 17.3892 123.854 16.5068 123.854 15.0405C123.854 13.5806 123.162 12.6982 122.007 12.6982C120.858 12.6982 120.141 13.5996 120.141 15.0469C120.141 16.4878 120.858 17.3892 122.001 17.3892ZM126.742 13.5425C126.742 12.3174 127.866 11.4541 129.427 11.4541C130.983 11.4541 131.998 12.1777 132.131 13.3965H130.824C130.697 12.8887 130.202 12.5649 129.427 12.5649C128.666 12.5649 128.088 12.9268 128.088 13.4663C128.088 13.8789 128.437 14.1392 129.186 14.3105L130.335 14.5771C131.649 14.8818 132.265 15.4468 132.265 16.4624C132.265 17.7637 131.052 18.6333 129.402 18.6333C127.758 18.6333 126.685 17.8906 126.565 16.6655H127.929C128.101 17.1987 128.609 17.5288 129.434 17.5288C130.284 17.5288 130.887 17.1479 130.887 16.5957C130.887 16.1831 130.564 15.9165 129.872 15.7515L128.666 15.4722C127.352 15.1611 126.742 14.5708 126.742 13.5425ZM134.969 18.6079C134.436 18.6079 134.036 18.1953 134.036 17.6621C134.036 17.1289 134.436 16.7163 134.969 16.7163C135.508 16.7163 135.902 17.1289 135.902 17.6621C135.902 18.1953 135.508 18.6079 134.969 18.6079ZM134.969 13.8154C134.436 13.8154 134.036 13.4028 134.036 12.8696C134.036 12.3301 134.436 11.9238 134.969 11.9238C135.508 11.9238 135.902 12.3301 135.902 12.8696C135.902 13.4028 135.508 13.8154 134.969 13.8154ZM138.257 20.4551H137.019L140.364 8.88965H141.602L138.257 20.4551ZM142.84 20.4551H141.602L144.947 8.88965H146.185L142.84 20.4551ZM156.176 11.5874L154.278 18.5H152.863L151.435 13.4092H151.327L149.905 18.5H148.502L146.598 11.5874H147.982L149.219 16.8623H149.321L150.743 11.5874H152.05L153.472 16.8623H153.58L154.812 11.5874H156.176ZM166.587 11.5874L164.689 18.5H163.273L161.845 13.4092H161.737L160.315 18.5H158.912L157.008 11.5874H158.392L159.63 16.8623H159.731L161.153 11.5874H162.461L163.882 16.8623H163.99L165.222 11.5874H166.587ZM176.997 11.5874L175.099 18.5H173.683L172.255 13.4092H172.147L170.725 18.5H169.322L167.418 11.5874H168.802L170.04 16.8623H170.141L171.563 11.5874H172.871L174.293 16.8623H174.401L175.632 11.5874H176.997ZM178.539 18.6079C178.006 18.6079 177.606 18.1953 177.606 17.6621C177.606 17.1289 178.006 16.7163 178.539 16.7163C179.079 16.7163 179.472 17.1289 179.472 17.6621C179.472 18.1953 179.079 18.6079 178.539 18.6079ZM187.178 13.8472H185.852C185.693 13.1743 185.134 12.6729 184.22 12.6729C183.078 12.6729 182.38 13.5488 182.38 15.0215C182.38 16.5195 183.084 17.4146 184.22 17.4146C185.084 17.4146 185.674 17.021 185.852 16.2783H187.178C187.001 17.6685 185.934 18.6333 184.227 18.6333C182.215 18.6333 180.983 17.2749 180.983 15.0215C180.983 12.8062 182.208 11.4541 184.22 11.4541C185.953 11.4541 187.001 12.4634 187.178 13.8472ZM191.66 18.6333C189.635 18.6333 188.397 17.2812 188.397 15.0405C188.397 12.8125 189.641 11.4541 191.66 11.4541C193.672 11.4541 194.916 12.8125 194.916 15.0405C194.916 17.2812 193.678 18.6333 191.66 18.6333ZM191.66 17.4209C192.84 17.4209 193.513 16.5449 193.513 15.0405C193.513 13.5425 192.84 12.6665 191.66 12.6665C190.473 12.6665 189.806 13.5425 189.806 15.0405C189.806 16.5513 190.473 17.4209 191.66 17.4209ZM199.087 18.6143C197.328 18.6143 196.217 17.2305 196.217 15.0405C196.217 12.8569 197.341 11.4731 199.087 11.4731C200.032 11.4731 200.832 11.9238 201.207 12.6855H201.308V8.88965H202.673V18.5H201.365V17.4082H201.257C200.845 18.1636 200.039 18.6143 199.087 18.6143ZM199.474 12.6982C198.325 12.6982 197.627 13.5869 197.627 15.0405C197.627 16.5068 198.319 17.3892 199.474 17.3892C200.623 17.3892 201.334 16.4941 201.334 15.0469C201.334 13.606 200.616 12.6982 199.474 12.6982ZM207.561 12.6157C206.551 12.6157 205.847 13.3267 205.771 14.4058H209.262C209.23 13.3203 208.57 12.6157 207.561 12.6157ZM209.256 16.6338H210.569C210.258 17.8716 209.154 18.6333 207.573 18.6333C205.593 18.6333 204.381 17.2749 204.381 15.0659C204.381 12.8569 205.618 11.4541 207.567 11.4541C209.49 11.4541 210.652 12.7681 210.652 14.939V15.415H205.771V15.4912C205.815 16.7036 206.52 17.4717 207.611 17.4717C208.437 17.4717 209.002 17.1733 209.256 16.6338ZM212.823 21.0073C212.709 21.0073 212.385 20.9946 212.258 20.9756V19.8013C212.366 19.8203 212.575 19.8267 212.702 19.8267C213.35 19.8267 213.718 19.5601 213.953 18.8618L214.054 18.5254L211.553 11.5874H213.039L214.772 17.0781H214.88L216.606 11.5874H218.053L215.476 18.7856C214.886 20.4678 214.232 21.0073 212.823 21.0073ZM224.674 18.5L223.836 16.0688H220.345L219.501 18.5H218.041L221.348 9.34033H222.878L226.185 18.5H224.674ZM222.04 11.0034L220.707 14.8755H223.474L222.148 11.0034H222.04ZM227.651 18.5V11.5874H229.009V18.5H227.651ZM228.33 10.375C227.822 10.375 227.448 10.0132 227.448 9.54346C227.448 9.06738 227.822 8.70557 228.33 8.70557C228.838 8.70557 229.213 9.06738 229.213 9.54346C229.213 10.0132 228.838 10.375 228.33 10.375ZM232.075 18.6079C231.542 18.6079 231.142 18.1953 231.142 17.6621C231.142 17.1289 231.542 16.7163 232.075 16.7163C232.615 16.7163 233.008 17.1289 233.008 17.6621C233.008 18.1953 232.615 18.6079 232.075 18.6079ZM240.715 13.8472H239.388C239.229 13.1743 238.671 12.6729 237.756 12.6729C236.614 12.6729 235.916 13.5488 235.916 15.0215C235.916 16.5195 236.62 17.4146 237.756 17.4146C238.62 17.4146 239.21 17.021 239.388 16.2783H240.715C240.537 17.6685 239.47 18.6333 237.763 18.6333C235.751 18.6333 234.519 17.2749 234.519 15.0215C234.519 12.8062 235.744 11.4541 237.756 11.4541C239.489 11.4541 240.537 12.4634 240.715 13.8472ZM245.196 18.6333C243.171 18.6333 241.933 17.2812 241.933 15.0405C241.933 12.8125 243.177 11.4541 245.196 11.4541C247.208 11.4541 248.452 12.8125 248.452 15.0405C248.452 17.2812 247.215 18.6333 245.196 18.6333ZM245.196 17.4209C246.377 17.4209 247.049 16.5449 247.049 15.0405C247.049 13.5425 246.377 12.6665 245.196 12.6665C244.009 12.6665 243.342 13.5425 243.342 15.0405C243.342 16.5513 244.009 17.4209 245.196 17.4209ZM250.096 18.5V11.5874H251.41V12.6982H251.512C251.817 11.9175 252.515 11.4541 253.435 11.4541C254.381 11.4541 255.035 11.9429 255.34 12.6982H255.447C255.797 11.9429 256.59 11.4541 257.548 11.4541C258.945 11.4541 259.757 12.2983 259.757 13.7393V18.5H258.393V14.0947C258.393 13.1616 257.948 12.7046 257.053 12.7046C256.171 12.7046 255.593 13.3394 255.593 14.1519V18.5H254.254V13.9614C254.254 13.1807 253.734 12.7046 252.921 12.7046C252.09 12.7046 251.461 13.3838 251.461 14.2725V18.5H250.096Z" fill="#4C4C4C"/>
</svg>
