<svg width="48" height="50" viewBox="0 0 48 50" fill="none" xmlns="http://www.w3.org/2000/svg">
<rect width="48" height="48" rx="16" fill="url(#paint0_linear_169_161)"/>
<g opacity="0.25" filter="url(#filter0_f_169_161)">
<rect x="7.23145" y="24" width="32.6987" height="20.4367" rx="10.2183" fill="url(#paint1_linear_169_161)"/>
</g>
<rect x="6.23999" y="6.24023" width="35.4236" height="35.4236" rx="17.7118" fill="url(#paint2_linear_169_161)"/>
<g filter="url(#filter1_i_169_161)">
<path d="M33.1998 19.383C32.9799 18.5562 32.3293 17.904 31.5015 17.6804C30.0049 17.2793 23.9999 17.2793 23.9999 17.2793C23.9999 17.2793 17.998 17.2793 16.4983 17.6804C15.6736 17.9009 15.023 18.5532 14.8 19.383C14.3999 20.8835 14.3999 24.0161 14.3999 24.0161C14.3999 24.0161 14.3999 27.1488 14.8 28.6492C15.0199 29.476 15.6705 30.1283 16.4983 30.3518C17.998 30.753 23.9999 30.753 23.9999 30.753C23.9999 30.753 30.0049 30.753 31.5015 30.3518C32.3262 30.1314 32.9768 29.4791 33.1998 28.6492C33.5999 27.1488 33.5999 24.0161 33.5999 24.0161C33.5999 24.0161 33.5999 20.8835 33.1998 19.383Z" fill="white"/>
<path d="M22.0817 26.9038L27.0696 24.0161L22.0817 21.1285V26.9038Z" fill="#FF0000"/>
</g>
<defs>
<filter id="filter0_f_169_161" x="1.77145" y="18.54" width="43.6187" height="31.3575" filterUnits="userSpaceOnUse" color-interpolation-filters="sRGB">
<feFlood flood-opacity="0" result="BackgroundImageFix"/>
<feBlend mode="normal" in="SourceGraphic" in2="BackgroundImageFix" result="shape"/>
<feGaussianBlur stdDeviation="2.73" result="effect1_foregroundBlur_169_161"/>
</filter>
<filter id="filter1_i_169_161" x="12.96" y="13.4395" width="21.6" height="22.0996" filterUnits="userSpaceOnUse" color-interpolation-filters="sRGB">
<feFlood flood-opacity="0" result="BackgroundImageFix"/>
<feBlend mode="normal" in="SourceGraphic" in2="BackgroundImageFix" result="shape"/>
<feColorMatrix in="SourceAlpha" type="matrix" values="0 0 0 0 0 0 0 0 0 0 0 0 0 0 0 0 0 0 127 0" result="hardAlpha"/>
<feOffset dy="0.5"/>
<feGaussianBlur stdDeviation="1.25"/>
<feComposite in2="hardAlpha" operator="arithmetic" k2="-1" k3="1"/>
<feColorMatrix type="matrix" values="0 0 0 0 0 0 0 0 0 0 0 0 0 0 0 0 0 0 0.1 0"/>
<feBlend mode="normal" in2="shape" result="effect1_innerShadow_169_161"/>
</filter>
<linearGradient id="paint0_linear_169_161" x1="4.03493" y1="3.1441" x2="39.6681" y2="48" gradientUnits="userSpaceOnUse">
<stop stop-color="#FBFBFC"/>
<stop offset="1" stop-color="#DBDDE8"/>
</linearGradient>
<linearGradient id="paint1_linear_169_161" x1="25.8407" y1="45.0462" x2="19.1756" y2="21.5541" gradientUnits="userSpaceOnUse">
<stop stop-color="#DB0505"/>
<stop offset="1" stop-color="#FF0000"/>
</linearGradient>
<linearGradient id="paint2_linear_169_161" x1="26.4" y1="42.7202" x2="9.83999" y2="6.24023" gradientUnits="userSpaceOnUse">
<stop stop-color="#DB0505"/>
<stop offset="1" stop-color="#FF0000"/>
</linearGradient>
</defs>
</svg>
